<svg width="100%" height="100%" viewBox="0 0 340 250" fill="none" xmlns="http://www.w3.org/2000/svg">
<path d="M338 8V242C338 245.314 335.314 248 332 248H8C4.68629 248 2 245.314 2 242V8C2 4.68629 4.68629 2 8 2H109C116.18 2 122 7.8203 122 15V60.7978C122 67.9448 125.121 74.7356 130.545 79.3901C139.723 87.267 153.277 87.267 162.455 79.3901C167.879 74.7356 171 67.9448 171 60.7978V34.2988V15C171 7.8203 176.82 2 184 2H332C335.314 2 338 4.68629 338 8Z" fill="white" stroke="#C1C9F2" stroke-width="4"/>
</svg>
