<svg width="100%" height="100%" viewBox="0 0 340 250" fill="none" xmlns="http://www.w3.org/2000/svg">
<path d="M338 8V242C338 245.314 335.314 248 332 248H8C4.68629 248 2 245.314 2 242V8C2 4.68629 4.68629 2 8 2H250C257.18 2 263 7.8203 263 15V60.7978C263 67.9448 266.121 74.7356 271.545 79.3901C280.723 87.267 294.277 87.267 303.455 79.3901C308.879 74.7356 312 67.9448 312 60.7978V34.2988V15C312 7.8203 317.82 2 325 2H332C335.314 2 338 4.68629 338 8Z" fill="white" stroke="#C1C9F2" stroke-width="4"/>
</svg>
