<svg width="100%" height="100%" viewBox="0 0 340 250" fill="none" xmlns="http://www.w3.org/2000/svg">
<path d="M338 8V242C338 245.314 335.314 248 332 248H8C4.68629 248 2 245.314 2 242V8C2 4.68629 4.68629 2 8 2H203C210.18 2 216 7.8203 216 15V60.7978C216 67.9448 219.121 74.7356 224.545 79.3901C233.723 87.267 247.277 87.267 256.455 79.3901C261.879 74.7356 265 67.9448 265 60.7978V34.2988V15C265 7.8203 270.82 2 278 2H332C335.314 2 338 4.68629 338 8Z" fill="white" stroke="#C1C9F2" stroke-width="4"/>
</svg>
