<svg width="100%" height="100%" viewBox="0 0 340 250" fill="none" xmlns="http://www.w3.org/2000/svg">
<path d="M338 8V242C338 245.314 335.314 248 332 248H8C4.68629 248 2 245.314 2 242V8C2 4.68629 4.68629 2 8 2H62C69.1797 2 75 7.8203 75 15V60.7978C75 67.9448 78.1209 74.7356 83.5445 79.3901C92.7233 87.267 106.277 87.267 115.455 79.3901C120.879 74.7356 124 67.9448 124 60.7978V34.2988V15C124 7.8203 129.82 2 137 2H332C335.314 2 338 4.68629 338 8Z" fill="white" stroke="#C1C9F2" stroke-width="4"/>
</svg>
