<svg width="100%" height="100%" viewBox="0 0 340 250" fill="none" xmlns="http://www.w3.org/2000/svg">
<path d="M338 8V242C338 245.314 335.314 248 332 248H8C4.68629 248 2 245.314 2 242V8C2 4.68629 4.68629 2 8 2H15C22.1797 2 28 7.8203 28 15V60.7978C28 67.9448 31.1209 74.7356 36.5445 79.3901C45.7232 87.267 59.2768 87.267 68.4555 79.3901C73.8791 74.7356 77 67.9448 77 60.7978V34.2988V15C77 7.8203 82.8203 2 90 2H332C335.314 2 338 4.68629 338 8Z" fill="white" stroke="#C1C9F2" stroke-width="4"/>
</svg>
