<svg width="100%" height="100%" viewBox="0 0 15 29" fill="none" xmlns="http://www.w3.org/2000/svg">
<g id="Ellipse 10">
<mask id="path-1-inside-1_29_9616" fill="white">
<path d="M0 0C1.96983 2.2707e-08 3.92037 0.375054 5.74025 1.10375C7.56014 1.83244 9.21372 2.9005 10.6066 4.24695C11.9995 5.5934 13.1044 7.19187 13.8582 8.95109C14.612 10.7103 15 12.5958 15 14.5C15 16.4042 14.612 18.2897 13.8582 20.0489C13.1044 21.8081 11.9995 23.4066 10.6066 24.7531C9.21372 26.0995 7.56013 27.1676 5.74025 27.8963C3.92036 28.6249 1.96982 29 -4.76837e-06 29V27.0913C1.71052 27.0913 3.40429 26.7656 4.98461 26.1328C6.56493 25.5 8.00085 24.5726 9.21037 23.4034C10.4199 22.2342 11.3793 20.8461 12.0339 19.3185C12.6885 17.7908 13.0254 16.1535 13.0254 14.5C13.0254 12.8465 12.6885 11.2092 12.0339 9.68154C11.3793 8.1539 10.4199 6.76585 9.21037 5.59664C8.00085 4.42743 6.56494 3.49997 4.98462 2.8672C3.4043 2.23443 1.71053 1.90875 0 1.90875V0Z"/>
</mask>
<path d="M0 0C1.96983 2.2707e-08 3.92037 0.375054 5.74025 1.10375C7.56014 1.83244 9.21372 2.9005 10.6066 4.24695C11.9995 5.5934 13.1044 7.19187 13.8582 8.95109C14.612 10.7103 15 12.5958 15 14.5C15 16.4042 14.612 18.2897 13.8582 20.0489C13.1044 21.8081 11.9995 23.4066 10.6066 24.7531C9.21372 26.0995 7.56013 27.1676 5.74025 27.8963C3.92036 28.6249 1.96982 29 -4.76837e-06 29V27.0913C1.71052 27.0913 3.40429 26.7656 4.98461 26.1328C6.56493 25.5 8.00085 24.5726 9.21037 23.4034C10.4199 22.2342 11.3793 20.8461 12.0339 19.3185C12.6885 17.7908 13.0254 16.1535 13.0254 14.5C13.0254 12.8465 12.6885 11.2092 12.0339 9.68154C11.3793 8.1539 10.4199 6.76585 9.21037 5.59664C8.00085 4.42743 6.56494 3.49997 4.98462 2.8672C3.4043 2.23443 1.71053 1.90875 0 1.90875V0Z" stroke="white" stroke-width="148" mask="url(#path-1-inside-1_29_9616)"/>
</g>
</svg>
