<svg width="100%" height="100%" viewBox="0 0 21 21" fill="none" xmlns="http://www.w3.org/2000/svg">
<g id="Ellipse 9">
<mask id="path-1-inside-1_32_670" fill="white">
<path d="M1.79217e-06 20.5C2.02752e-06 17.8079 0.53025 15.1421 1.56047 12.655C2.59069 10.1678 4.10071 7.90788 6.00431 6.00428C7.90792 4.10068 10.1678 2.59066 12.655 1.56044C15.1422 0.530215 17.8079 -3.26628e-05 20.5 -3.23097e-05L20.5 2.04997C18.0771 2.04997 15.678 2.52719 13.4395 3.45439C11.201 4.38159 9.16712 5.74061 7.45388 7.45385C5.74064 9.16709 4.38163 11.201 3.45443 13.4395C2.52723 15.6779 2.05 18.0771 2.05 20.5L1.79217e-06 20.5Z"/>
</mask>
<path d="M1.79217e-06 20.5C2.02752e-06 17.8079 0.53025 15.1421 1.56047 12.655C2.59069 10.1678 4.10071 7.90788 6.00431 6.00428C7.90792 4.10068 10.1678 2.59066 12.655 1.56044C15.1422 0.530215 17.8079 -3.26628e-05 20.5 -3.23097e-05L20.5 2.04997C18.0771 2.04997 15.678 2.52719 13.4395 3.45439C11.201 4.38159 9.16712 5.74061 7.45388 7.45385C5.74064 9.16709 4.38163 11.201 3.45443 13.4395C2.52723 15.6779 2.05 18.0771 2.05 20.5L1.79217e-06 20.5Z" stroke="white" stroke-width="4" mask="url(#path-1-inside-1_32_670)"/>
</g>
</svg>
