<svg width="8" height="150" viewBox="0 0 8 150" fill="none" xmlns="http://www.w3.org/2000/svg">
<path fill-rule="evenodd" clip-rule="evenodd" d="M8 146C8 148.21 6.20892 150.001 3.99963 150V150C1.79064 150 1.56575e-07 148.209 3.49691e-07 146L1.27637e-05 4.00088C1.29568e-05 1.79174 1.79087 0.000876085 4.00001 0.000876278L5.93792 0.000876448C7.07678 0.000876547 8.00001 0.924105 8.00001 2.06296V2.06296C8.00001 2.83718 7.55762 3.53326 6.90698 3.95287C4.50091 5.50458 3.00001 7.70078 3.00001 10.1357C3.00001 11.8583 3.75119 13.4615 5.04262 14.8014C6.60587 16.4234 8.00001 18.3645 8.00001 20.6173L8.00001 20.7356C8.00001 22.9883 6.60587 24.9294 5.04261 26.5514C3.75118 27.8914 3.00001 29.4945 3.00001 31.2171C3.00001 32.9397 3.75118 34.5428 5.04261 35.8828C6.60587 37.5048 8.00001 39.4459 8.00001 41.6986L8.00001 41.8166C8.00001 44.0694 6.60586 46.0105 5.0426 47.6325C3.75118 48.9724 3.00001 50.5756 3.00001 52.2982C3.00001 54.0208 3.75118 55.6239 5.0426 56.9638C6.60586 58.5859 8.00001 60.527 8.00001 62.7797L8.00001 62.8977C8.00001 65.1504 6.60586 67.0915 5.0426 68.7136C3.75118 70.0535 3.00001 71.6566 3.00001 73.3792C3.00001 75.1018 3.75118 76.705 5.0426 78.0449C6.60586 79.6669 8.00001 81.608 8.00001 83.8608L8.00001 83.9788C8.00001 86.2315 6.60586 88.1726 5.0426 89.7946C3.75118 91.1346 3.00001 92.7377 3 94.4603C3 96.1829 3.75118 97.786 5.0426 99.126C6.60586 100.748 8 102.689 8 104.942L8 105.06C8 107.313 6.60586 109.254 5.0426 110.876C3.75118 112.216 3 113.819 3 115.541C3 117.264 3.75118 118.867 5.0426 120.207C6.60586 121.829 8 123.77 8 126.023L8 126.141C8 128.394 6.60586 130.335 5.0426 131.957C3.75118 133.297 3 134.9 3 136.622C3 138.701 4.09364 140.606 5.91037 142.084C7.09695 143.049 8 144.396 8 145.926L8 146Z" fill="#F4DED0"/>
<path d="M3 150L0 149.999C1.66109e-06 130.999 1.31134e-05 -2.88487e-06 1.31134e-05 -2.88487e-06L3.00001 -2.6226e-06L3 150Z" fill="#F4DED0"/>
<path d="M4 150L0 150C4.42957e-08 149.493 3.49691e-07 146 3.49691e-07 146L4 146L4 150Z" fill="#F4DED0"/>
<path d="M4 3.99976L0 3.99974C4.42957e-08 3.49307 3.49691e-07 -0.00024446 3.49691e-07 -0.00024446L4 -0.00024411L4 3.99976Z" fill="#F4DED0"/>
</svg>
