<svg width="100%" height="100%" viewBox="0 0 360 324" fill="none" xmlns="http://www.w3.org/2000/svg">
<path d="M360 0L-1 0L35.6595 16.4253C59.8399 27.2594 74.5737 52.1505 72.4395 78.561L72.2927 80.3774C72.0979 82.7879 71.6937 85.1768 71.0846 87.5172L69.1887 94.8011C65.2975 109.752 72.4795 125.374 86.3612 132.154C91.7877 134.804 97.8458 135.889 103.855 135.285L105.43 135.127C129.28 132.732 149.372 152.73 147.089 176.591L146.583 181.878C145.01 198.307 153.116 214.156 167.358 222.498L178.7 229.141C185.653 233.213 193.566 235.36 201.624 235.36H213.745C235.848 235.36 252.515 255.443 248.439 277.168C245.612 292.241 252.84 307.415 266.325 314.717L271.953 317.764C282.82 323.649 295.659 324.701 307.34 320.664L316.115 317.631C342.38 308.553 360 283.82 360 256.03V0Z" fill="#F4DED0"/>
</svg>
