<svg width="100%" height="100%" viewBox="0 0 360 324" fill="none" xmlns="http://www.w3.org/2000/svg">
<path d="M0 324L361 324L331.47 282.577C327.41 276.881 320.848 273.5 313.853 273.5C304.178 273.5 295.678 267.076 293.038 257.767L290.513 248.863C288.868 243.06 288.801 236.922 290.32 231.085L290.811 229.199C294.703 214.248 287.52 198.626 273.639 191.846C268.212 189.196 262.154 188.111 256.145 188.715L254.57 188.873C230.72 191.268 210.628 171.27 212.911 147.409L213.417 142.122C214.99 125.693 206.884 109.844 192.642 101.502L181.3 94.8594C174.347 90.7869 166.434 88.6402 158.376 88.6402L146.255 88.6402C124.152 88.6402 107.485 68.557 111.561 46.8321C114.388 31.7593 107.16 16.5853 93.6746 9.28295L88.0474 6.23577C77.1797 0.350885 64.3406 -0.701115 52.6599 3.33621L43.8848 6.3692C17.62 15.4474 -2.48123e-05 40.1804 -2.23829e-05 67.9698L0 324Z" fill="#F4DED0"/>
</svg>
