<svg width="100%" height="100%" viewBox="0 0 360 316" fill="none" xmlns="http://www.w3.org/2000/svg">
<path d="M-1.5 315.5H359.5V285.945C359.5 277.674 356.129 269.761 350.166 264.032C340.555 254.798 326.048 252.904 314.389 259.361L313.927 259.617C306.034 263.989 296.633 264.718 288.161 261.615L283.199 259.798C272.869 256.015 266 246.185 266 235.184V226.727C266 220.076 261.606 214.224 255.218 212.37C252.153 211.48 248.884 211.594 245.889 212.696L243.59 213.542C221.965 221.496 203.862 195.55 218.791 177.999L261.088 128.274C263.024 125.999 261.407 122.5 258.419 122.5C258.141 122.5 257.863 122.533 257.593 122.599L215.184 132.892C209.415 134.292 203.5 135 197.564 135C180.993 135 164.892 140.51 151.796 150.662L109.542 183.417C108.218 184.443 106.591 185 104.917 185C98.926 185 95.3224 178.356 98.5894 173.335L160.264 78.538C166.174 69.4542 161.828 57.2373 151.509 53.9273C147.641 52.6866 143.45 52.9225 139.746 54.5895L104.397 70.4964C93.2019 75.5341 82.4053 62.7611 89.2372 52.5614C94.4673 44.753 89.2879 34.2104 79.911 33.5783L66.6249 32.6826C60.2643 32.2538 54.4937 28.8048 51.1037 23.4059L49.0695 20.1662C45.1848 13.9795 38.9914 9.59919 31.8639 7.99751L-1.5 0.5V315.5Z" fill="#D9D9D9"/>
</svg>
