<svg width="100%" height="100%" viewBox="0 0 360 681" fill="none" xmlns="http://www.w3.org/2000/svg">
<path d="M360.5 407.167V507.637C360.5 509.205 360.283 510.765 359.855 512.274L334.667 601.119C333.596 604.898 331.13 608.13 327.768 610.161C318.608 615.695 306.729 610.507 304.563 600.027L284.948 505.088C284.324 502.067 283.035 499.223 281.175 496.762C270.094 482.101 246.834 487.983 244.054 506.149L242.841 514.074C240.024 532.474 218.015 540.658 203.5 529.004C188.535 516.988 165.876 526.304 164.302 545.432C162.055 572.74 123.127 575.473 117.087 548.747L102.623 484.756C102.21 482.929 101.522 481.176 100.582 479.556C91.3681 463.68 67.1485 469.503 66.1577 487.832L62.5 555.5L60.1304 569.072C54.3946 601.922 45.0177 634.031 32.1729 664.805L28.437 673.755C27.8191 675.235 26.8989 676.57 25.7352 677.674C18.6687 684.378 6.98819 679.829 6.31801 670.111L4 636.5L0 510V72.8259C0 57.4283 5.38361 42.5152 15.219 30.6681L22 22.5L22.9261 21.5061C35.4103 8.10848 52.8997 0.5 71.2122 0.5H73.7977C83.8016 0.5 93.6746 2.77412 102.67 7.15048L126 18.5L141.27 26.5457C160.218 36.5288 171.398 56.8387 169.697 78.1878L169.411 81.783C168.505 93.158 163.267 103.751 154.777 111.376L137.206 127.158C125.241 137.904 126.184 156.935 139.153 166.446C142.34 168.783 146.03 170.342 149.927 170.999L183.054 176.582C186.678 177.193 190.347 177.5 194.023 177.5H224.5H235.524C245.961 177.5 256.185 180.455 265.012 186.023L272.121 190.507C279.738 195.312 285.18 202.898 287.29 211.654L289.503 220.839C292.112 231.664 286.652 242.814 276.502 247.391C271.346 249.716 265.518 250.075 260.115 248.401L228.047 238.46C221.718 236.498 215.13 235.5 208.505 235.5H192.093C186.744 235.5 181.441 236.491 176.454 238.424C157.502 245.768 146.213 265.31 149.319 285.397L149.846 288.807C150.935 295.846 153.59 302.55 157.616 308.426L171.492 328.677C182.296 344.445 199.405 354.755 218.394 356.939L224.211 357.608C237.724 359.163 251.383 356.409 263.239 349.741C281.857 339.268 304.673 338.794 323.809 348.29C346.123 359.365 360.5 382.256 360.5 407.167Z" fill="#F4DED0"/>
</svg>
