<svg width="100%" height="100%" viewBox="0 0 360 645" fill="none" xmlns="http://www.w3.org/2000/svg">
<path d="M276.284 21.1849L312.437 162.695C315.517 174.753 332.54 175.042 336.028 163.096C339.992 149.521 360 152.382 360 166.524V313.842C360 320.151 358.208 326.33 354.833 331.659L344.105 348.598C342.042 351.855 340.355 355.337 339.079 358.975L311.442 437.74C307.432 449.169 291.762 450.41 286.003 439.755C280.242 429.098 264.57 430.341 260.562 441.773L230.451 527.658C228.384 533.553 222.818 537.5 216.571 537.5C209.554 537.5 203.514 532.543 202.145 525.661L201.648 523.162C197.93 504.473 171.42 503.884 166.876 522.39L142.353 622.271C139.69 633.115 131.068 641.485 120.15 643.825C109.598 646.086 98.66 642.333 91.7191 634.07L91.1053 633.34C85.3268 626.46 82.847 617.398 84.3183 608.535L92.5414 559.001C96.8847 532.838 69.6649 512.828 45.9894 524.779C24.4448 535.655 -1 519.997 -1 495.863V277.284C-1 270.487 0.259848 263.749 2.71572 257.411L14.5 227L38.0456 141.058C44.4877 117.545 75.5816 112.486 89.1459 132.744C91.6783 136.526 93.2667 140.86 93.7778 145.383L101.888 217.163C102.563 223.13 106.731 228.119 112.482 229.845C120.852 232.356 129.588 227.208 131.447 218.67L166.587 57.2834C167.704 52.1563 172.242 48.5 177.489 48.5C182.515 48.5 186.921 51.8607 188.25 56.7081L188.803 58.727C192.688 72.9017 213.045 72.1369 215.855 57.7106L223.362 19.1763C225.475 8.32939 234.977 0.5 246.027 0.5H249.651C262.212 0.5 273.175 9.01462 276.284 21.1849Z" fill="#F4DED0"/>
</svg>
