<svg width="100%" height="100%" viewBox="0 0 671 173" fill="none" xmlns="http://www.w3.org/2000/svg">
<mask id="path-1-inside-1_87_316" fill="white">
<path d="M594.5 20C604.48 20 614.363 21.9529 623.584 25.7471C632.805 29.5413 641.183 35.1026 648.24 42.1134C655.297 49.1243 660.895 57.4473 664.715 66.6074C668.534 75.7675 670.5 85.5852 670.5 95.5L664.476 95.5C664.476 86.3711 662.666 77.3315 659.15 68.8975C655.633 60.4634 650.479 52.8001 643.981 46.3449C637.483 39.8898 629.769 34.7693 621.279 31.2758C612.789 27.7823 603.689 25.9842 594.5 25.9842L594.5 20Z"/>
</mask>
<path d="M594.5 20C604.48 20 614.363 21.9529 623.584 25.7471C632.805 29.5413 641.183 35.1026 648.24 42.1134C655.297 49.1243 660.895 57.4473 664.715 66.6074C668.534 75.7675 670.5 85.5852 670.5 95.5L664.476 95.5C664.476 86.3711 662.666 77.3315 659.15 68.8975C655.633 60.4634 650.479 52.8001 643.981 46.3449C637.483 39.8898 629.769 34.7693 621.279 31.2758C612.789 27.7823 603.689 25.9842 594.5 25.9842L594.5 20Z" stroke="white" stroke-width="74" mask="url(#path-1-inside-1_87_316)"/>
<mask id="path-2-inside-2_87_316" fill="white">
<path d="M6.64413e-06 96.5C7.51665e-06 86.5195 1.95287 76.6368 5.7471 67.416C9.54134 58.1953 15.1026 49.8171 22.1135 42.7599C29.1243 35.7026 37.4473 30.1045 46.6074 26.2851C55.7675 22.4658 65.5852 20.5 75.5 20.5L75.5 26.5238C66.3711 26.5238 57.3315 28.3338 48.8975 31.8504C40.4634 35.3671 32.8001 40.5215 26.3449 47.0194C19.8898 53.5172 14.7693 61.2314 11.2758 69.7213C7.78229 78.2112 5.98421 87.3106 5.98421 96.5L6.64413e-06 96.5Z"/>
</mask>
<path d="M6.64413e-06 96.5C7.51665e-06 86.5195 1.95287 76.6368 5.7471 67.416C9.54134 58.1953 15.1026 49.8171 22.1135 42.7599C29.1243 35.7026 37.4473 30.1045 46.6074 26.2851C55.7675 22.4658 65.5852 20.5 75.5 20.5L75.5 26.5238C66.3711 26.5238 57.3315 28.3338 48.8975 31.8504C40.4634 35.3671 32.8001 40.5215 26.3449 47.0194C19.8898 53.5172 14.7693 61.2314 11.2758 69.7213C7.78229 78.2112 5.98421 87.3106 5.98421 96.5L6.64413e-06 96.5Z" stroke="white" stroke-width="74" mask="url(#path-2-inside-2_87_316)"/>
<path d="M596.625 25.1178C597.795 23.9439 597.791 22.0445 596.617 20.8751L577.489 1.82001C576.315 0.650693 574.415 0.654346 573.246 1.82817C572.077 3.00199 572.08 4.90149 573.254 6.0708L590.257 23.0087L573.32 40.0119C572.15 41.1857 572.154 43.0852 573.328 44.2545C574.501 45.4238 576.401 45.4202 577.57 44.2463L596.625 25.1178ZM75.5058 26.9987L594.506 26.0005L594.494 20.0005L75.4942 20.9987L75.5058 26.9987Z" fill="white"/>
</svg>
