<svg width="8" height="150" viewBox="0 0 8 150" fill="none" xmlns="http://www.w3.org/2000/svg">
<path fill-rule="evenodd" clip-rule="evenodd" d="M0 3.99951C0 1.79023 1.79108 -0.00069053 4.00037 -0.000488264V-0.000488264C6.20936 -0.000286025 8 1.79052 8 3.99951V145.999C8 148.208 6.20914 149.999 4 149.999H2.06209C0.923228 149.999 0 149.076 0 147.937V147.937C0 147.163 0.442395 146.467 1.09304 146.047C3.4991 144.495 5 142.299 5 139.864C5 138.142 4.24882 136.539 2.95739 135.199C1.39414 133.577 0 131.635 0 129.383V129.264C0 127.012 1.39414 125.071 2.9574 123.449C4.24883 122.109 5 120.506 5 118.783C5 117.06 4.24883 115.457 2.9574 114.117C1.39414 112.495 0 110.554 0 108.301V108.183C0 105.931 1.39414 103.99 2.9574 102.368C4.24883 101.028 5 99.4244 5 97.7018C5 95.9792 4.24883 94.3761 2.9574 93.0362C1.39414 91.4141 0 89.473 0 87.2203V87.1023C0 84.8496 1.39414 82.9085 2.9574 81.2864C4.24883 79.9465 5 78.3434 5 76.6208C5 74.8982 4.24883 73.295 2.9574 71.9551C1.39414 70.3331 0 68.392 0 66.1392V66.0212C0 63.7685 1.39414 61.8274 2.9574 60.2054C4.24883 58.8654 5 57.2623 5 55.5397C5 53.8171 4.24883 52.214 2.9574 50.874C1.39414 49.252 0 47.3109 0 45.0582V44.9401C0 42.6874 1.39414 40.7463 2.9574 39.1243C4.24883 37.7843 5 36.1812 5 34.4586C5 32.736 4.24882 31.1329 2.9574 29.7929C1.39414 28.1709 0 26.2298 0 23.9771V23.859C0 21.6063 1.39414 19.6652 2.9574 18.0432C4.24883 16.7032 5 15.1001 5 13.3775C5 11.299 3.90636 9.39447 2.08963 7.91627C0.903055 6.9508 0 5.60361 0 4.07388V3.99951Z" fill="#F4DED0"/>
<path d="M5 0L8 0.000732422C8 19.0006 8 150 8 150H5V0Z" fill="#F4DED0"/>
<path d="M4 0L8 1.95313e-05C8 0.506683 8 4 8 4H4V0Z" fill="#F4DED0"/>
<path d="M4 146L8 146C8 146.507 8 150 8 150H4V146Z" fill="#F4DED0"/>
</svg>
