<svg width="32" height="150" viewBox="0 0 32 150" fill="none" xmlns="http://www.w3.org/2000/svg">
<path fill-rule="evenodd" clip-rule="evenodd" d="M8 0H0V150H8L15.5 143.919V141.649H16.5V143.919L24 150H32V0H24L16.5 6.84122V9.16227H15.5V6.84122L8 0ZM15.5 16.1352V23.1082H16.5V16.1352H15.5ZM15.5 30.0812L15.5 37.0542H16.5V30.0812H15.5ZM15.5 44.0271L15.5 51.0001H16.5V44.0271H15.5ZM15.5 57.9731V64.946L16.5 64.9461L16.5 57.9731H15.5ZM15.5 71.919V78.892H16.5V71.919H15.5ZM15.5 85.865V92.838H16.5V85.865H15.5ZM15.5 99.8109L15.5 106.784H16.5V99.8109H15.5ZM15.5 113.757L15.5 120.73H16.5V113.757H15.5ZM15.5 127.703V134.676H16.5L16.5 127.703H15.5Z" fill="#F4DED0"/>
</svg>
