<svg width="100%" height="100%" viewBox="0 0 671 171" fill="none" xmlns="http://www.w3.org/2000/svg">
<mask id="path-1-inside-1_86_312" fill="white">
<path d="M76 152.5C66.0195 152.5 56.1368 150.547 46.9161 146.753C37.6953 142.959 29.3171 137.397 22.2599 130.387C15.2026 123.376 9.60451 115.053 5.78516 105.893C1.9658 96.7325 5.82301e-07 86.9148 9.00329e-07 77L6.02383 77C6.02383 86.1289 7.83381 95.1685 11.3504 103.603C14.8671 112.037 20.0215 119.7 26.5194 126.155C33.0173 132.61 40.7314 137.731 49.2213 141.224C57.7112 144.718 66.8106 146.516 76 146.516L76 152.5Z"/>
</mask>
<path d="M76 152.5C66.0195 152.5 56.1368 150.547 46.9161 146.753C37.6953 142.959 29.3171 137.397 22.2599 130.387C15.2026 123.376 9.60451 115.053 5.78516 105.893C1.9658 96.7325 5.82301e-07 86.9148 9.00329e-07 77L6.02383 77C6.02383 86.1289 7.83381 95.1685 11.3504 103.603C14.8671 112.037 20.0215 119.7 26.5194 126.155C33.0173 132.61 40.7314 137.731 49.2213 141.224C57.7112 144.718 66.8106 146.516 76 146.516L76 152.5Z" stroke="white" stroke-width="74" mask="url(#path-1-inside-1_86_312)"/>
<mask id="path-2-inside-2_86_312" fill="white">
<path d="M670.5 76C670.5 85.9805 668.547 95.8632 664.753 105.084C660.959 114.305 655.397 122.683 648.387 129.74C641.376 136.797 633.053 142.395 623.893 146.215C614.733 150.034 604.915 152 595 152L595 145.976C604.129 145.976 613.168 144.166 621.603 140.65C630.037 137.133 637.7 131.979 644.155 125.481C650.61 118.983 655.731 111.269 659.224 102.779C662.718 94.2888 664.516 85.1894 664.516 76H670.5Z"/>
</mask>
<path d="M670.5 76C670.5 85.9805 668.547 95.8632 664.753 105.084C660.959 114.305 655.397 122.683 648.387 129.74C641.376 136.797 633.053 142.395 623.893 146.215C614.733 150.034 604.915 152 595 152L595 145.976C604.129 145.976 613.168 144.166 621.603 140.65C630.037 137.133 637.7 131.979 644.155 125.481C650.61 118.983 655.731 111.269 659.224 102.779C662.718 94.2888 664.516 85.1894 664.516 76H670.5Z" stroke="white" stroke-width="74" mask="url(#path-2-inside-2_86_312)"/>
<path d="M597.125 150.619C598.295 149.445 598.291 147.545 597.117 146.376L577.989 127.321C576.815 126.152 574.915 126.155 573.746 127.329C572.577 128.503 572.58 130.402 573.754 131.572L590.757 148.51L573.819 165.513C572.65 166.686 572.654 168.586 573.828 169.755C575.001 170.925 576.901 170.921 578.07 169.747L597.125 150.619ZM594.994 145.501L75.9942 146.5L76.0057 152.5L595.006 151.501L594.994 145.501Z" fill="white"/>
</svg>
