<svg width="100%" height="100%" viewBox="0 0 268 172" fill="none" xmlns="http://www.w3.org/2000/svg">
<path d="M93.8849 20.8725C92.7099 22.0407 92.7044 23.9402 93.8725 25.1151L112.909 44.2625C114.077 45.4375 115.976 45.443 117.151 44.2749C118.326 43.1067 118.332 41.2072 117.164 40.0323L100.243 23.0124L117.263 6.09129C118.438 4.92313 118.443 3.02365 117.275 1.84867C116.107 0.673684 114.207 0.668153 113.032 1.83631L93.8849 20.8725ZM95.9913 26L267.992 26.5009L268.009 20.5009L96.0087 20L95.9913 26Z" fill="white"/>
<path d="M20.8787 164.121C22.0503 165.293 23.9497 165.293 25.1213 164.121L44.2132 145.029C45.3848 143.858 45.3848 141.958 44.2132 140.787C43.0416 139.615 41.1421 139.615 39.9706 140.787L23 157.757L6.02944 140.787C4.85786 139.615 2.95837 139.615 1.7868 140.787C0.615222 141.958 0.615222 143.858 1.7868 145.029L20.8787 164.121ZM26 162L26 91L20 91L20 162L26 162Z" fill="white"/>
<mask id="path-3-inside-1_73_1067" fill="white">
<path d="M20 95.9991C20 86.0187 21.9529 76.1359 25.7471 66.9152C29.5413 57.6944 35.1026 49.3163 42.1134 42.259C49.1243 35.2018 57.4473 29.6036 66.6074 25.7843C75.7675 21.9649 85.5852 19.9991 95.5 19.9991L95.5 26.023C86.3711 26.023 77.3315 27.833 68.8975 31.3496C60.4634 34.8662 52.8001 40.0206 46.3449 46.5185C39.8898 53.0164 34.7693 60.7305 31.2758 69.2204C27.7823 77.7103 25.9842 86.8097 25.9842 95.9991L20 95.9991Z"/>
</mask>
<path d="M20 95.9991C20 86.0187 21.9529 76.1359 25.7471 66.9152C29.5413 57.6944 35.1026 49.3163 42.1134 42.259C49.1243 35.2018 57.4473 29.6036 66.6074 25.7843C75.7675 21.9649 85.5852 19.9991 95.5 19.9991L95.5 26.023C86.3711 26.023 77.3315 27.833 68.8975 31.3496C60.4634 34.8662 52.8001 40.0206 46.3449 46.5185C39.8898 53.0164 34.7693 60.7305 31.2758 69.2204C27.7823 77.7103 25.9842 86.8097 25.9842 95.9991L20 95.9991Z" stroke="white" stroke-width="74" mask="url(#path-3-inside-1_73_1067)"/>
</svg>
