<svg width="100%" height="100%" viewBox="0 0 20 20" fill="none" xmlns="http://www.w3.org/2000/svg">
<path d="M15.8498 12.3217C16.0982 12.5653 16.0316 12.8504 15.7011 12.9584C15.3705 13.0665 14.9013 12.9566 14.6529 12.713L9.5198 7.67828C9.27146 7.4347 9.33808 7.14963 9.66859 7.04157C9.99911 6.93351 10.4684 7.04337 10.7167 7.28696L15.8498 12.3217Z" fill="white"/>
<path d="M5.34706 12.713C5.09872 12.9566 4.62946 13.0665 4.29894 12.9584C3.96842 12.8504 3.90181 12.5653 4.15015 12.3217L9.24321 7.32627C9.49155 7.08268 9.96081 6.97282 10.2913 7.08088C10.6218 7.18894 10.6885 7.47401 10.4401 7.71759L5.34706 12.713Z" fill="white"/>
</svg>
