<svg width="100%" height="100%" viewBox="0 0 21 21" fill="none" xmlns="http://www.w3.org/2000/svg">
<g id="Ellipse 12">
<mask id="path-1-inside-1_32_664" fill="white">
<path d="M21 0.500031C21 3.19213 20.4698 5.85787 19.4395 8.34504C18.4093 10.8322 16.8993 13.0921 14.9957 14.9957C13.0921 16.8993 10.8322 18.4093 8.34501 19.4396C5.85784 20.4698 3.1921 21 0.499999 21L0.499999 18.95C2.92289 18.95 5.32205 18.4728 7.56051 17.5456C9.79897 16.6184 11.8329 15.2594 13.5461 13.5462C15.2594 11.8329 16.6184 9.799 17.5456 7.56054C18.4728 5.32208 18.95 2.92292 18.95 0.500031H21Z"/>
</mask>
<path d="M21 0.500031C21 3.19213 20.4698 5.85787 19.4395 8.34504C18.4093 10.8322 16.8993 13.0921 14.9957 14.9957C13.0921 16.8993 10.8322 18.4093 8.34501 19.4396C5.85784 20.4698 3.1921 21 0.499999 21L0.499999 18.95C2.92289 18.95 5.32205 18.4728 7.56051 17.5456C9.79897 16.6184 11.8329 15.2594 13.5461 13.5462C15.2594 11.8329 16.6184 9.799 17.5456 7.56054C18.4728 5.32208 18.95 2.92292 18.95 0.500031H21Z" stroke="white" stroke-width="4" mask="url(#path-1-inside-1_32_664)"/>
</g>
</svg>
