<svg width="100%" height="100%" viewBox="0 0 21 21" fill="none" xmlns="http://www.w3.org/2000/svg">
<g id="Ellipse 8">
<mask id="path-1-inside-1_32_661" fill="white">
<path d="M20.5 21C17.8079 21 15.1422 20.4698 12.655 19.4395C10.1678 18.4093 7.90791 16.8993 6.00431 14.9957C4.10071 13.0921 2.59069 10.8322 1.56047 8.34501C0.530247 5.85783 -1.13143e-06 3.1921 -8.96083e-07 0.499997L2.05 0.499997C2.05 2.92289 2.52722 5.32205 3.45442 7.56051C4.38162 9.79896 5.74064 11.8329 7.45388 13.5461C9.16712 15.2594 11.201 16.6184 13.4395 17.5456C15.6779 18.4728 18.0771 18.95 20.5 18.95L20.5 21Z"/>
</mask>
<path d="M20.5 21C17.8079 21 15.1422 20.4698 12.655 19.4395C10.1678 18.4093 7.90791 16.8993 6.00431 14.9957C4.10071 13.0921 2.59069 10.8322 1.56047 8.34501C0.530247 5.85783 -1.13143e-06 3.1921 -8.96083e-07 0.499997L2.05 0.499997C2.05 2.92289 2.52722 5.32205 3.45442 7.56051C4.38162 9.79896 5.74064 11.8329 7.45388 13.5461C9.16712 15.2594 11.201 16.6184 13.4395 17.5456C15.6779 18.4728 18.0771 18.95 20.5 18.95L20.5 21Z" stroke="white" stroke-width="4" mask="url(#path-1-inside-1_32_661)"/>
</g>
</svg>
