<svg width="100%" height="100%" viewBox="0 0 21 21" fill="none" xmlns="http://www.w3.org/2000/svg">
<g id="Ellipse 11">
<mask id="path-1-inside-1_32_662" fill="white">
<path d="M0.5 3.0762e-05C3.1921 3.07941e-05 5.85784 0.530279 8.34501 1.5605C10.8322 2.59072 13.0921 4.10074 14.9957 6.00434C16.8993 7.90794 18.4093 10.1678 19.4395 12.655C20.4698 15.1422 21 17.8079 21 20.5L18.95 20.5C18.95 18.0771 18.4728 15.678 17.5456 13.4395C16.6184 11.2011 15.2594 9.16715 13.5461 7.45391C11.8329 5.74067 9.79897 4.38165 7.56051 3.45445C5.32205 2.52726 2.92289 2.05003 0.5 2.05003L0.5 3.0762e-05Z"/>
</mask>
<path d="M0.5 3.0762e-05C3.1921 3.07941e-05 5.85784 0.530279 8.34501 1.5605C10.8322 2.59072 13.0921 4.10074 14.9957 6.00434C16.8993 7.90794 18.4093 10.1678 19.4395 12.655C20.4698 15.1422 21 17.8079 21 20.5L18.95 20.5C18.95 18.0771 18.4728 15.678 17.5456 13.4395C16.6184 11.2011 15.2594 9.16715 13.5461 7.45391C11.8329 5.74067 9.79897 4.38165 7.56051 3.45445C5.32205 2.52726 2.92289 2.05003 0.5 2.05003L0.5 3.0762e-05Z" stroke="white" stroke-width="4" mask="url(#path-1-inside-1_32_662)"/>
</g>
</svg>
